<?xml version="1.0" encoding="UTF-8"?>
<svg width="128" height="128" version="1.1" viewBox="0 0 33.867 33.867" xmlns="http://www.w3.org/2000/svg">
 <g transform="translate(0 -263.13)">
  <rect y="263.13" width="33.867" height="33.867" fill="#b0bec5" style="paint-order:markers stroke fill"/>
  <path d="m13.935 274.99c-.05268.0527-.09266.11617-.12606.18579l-.0038-.004-5.2755 11.884.00517.005c-.097834.18955.06585.57524.40121.91107.33536.33537.72105.49905.91061.40122l.0047.005 11.884-5.276-.0038-.004c.06914-.0329.13264-.0729.18579-.12652.7347-.7347-.45671-3.117-2.6603-5.3211-2.2046-2.2041-4.5869-3.395-5.3221-2.6603z" fill="#96a9b2" stroke-width=".26458"/>
  <path d="m14.581 277.11-5.919 9.6451-.13264.29867.00518.005c-.097834.18955.06585.57524.40121.91108.10912.10912.22248.1919.33348.26198l7.1931-8.7702z" fill="#b0bec5" stroke-width=".26458"/>
  <path d="m19.29 277.61c2.1966 2.1975 3.4162 4.5399 2.7229 5.2322-.69283.69331-3.0352-.52586-5.2332-2.7224-2.197-2.1975-3.4162-4.5408-2.7234-5.2336.6933-.69283 3.0357.52633 5.2336 2.7238z" fill="#7a919d" stroke-width=".26458"/>
  <path d="m17.211 277.86c-.0936.0757-.21589.11524-.34524.10113-.40827-.0442-.75163-.18626-.99198-.41062-.25446-.23753-.38005-.55643-.34571-.8758.0602-.56067.62275-1.0752 1.5818-.97176.37299.04.5395-.08.54514-.13734.0066-.0569-.13029-.20978-.50328-.25023-.40827-.0442-.75163-.18626-.99245-.41062-.25446-.23753-.38052-.55643-.34571-.8758.06115-.56067.62322-1.0752 1.5813-.97129.27186.0292.41532-.0268.476-.063.04845-.0296.06773-.0579.06961-.0743.0056-.0569-.12935-.20978-.50328-.25023-.25822-.0282-.44543-.25963-.41674-.51833.02775-.25823.2587-.44496.51786-.41674.95811.10301 1.3984.72529 1.3377 1.2864-.06115.5616-.62322 1.0752-1.5823.97222-.27186-.0296-.41391.0268-.47506.063-.04845.0292-.0682.0579-.07008.0738-.0061.0574.12982.20978.50375.25023.95811.10348 1.3984.72529 1.3377 1.2864-.06068.56066-.62275 1.0752-1.5813.97128-.27186-.0292-.41485.0273-.476.063-.04892.0301-.06773.0583-.06961.0743-.0061.0569.12982.20978.50328.25023.25776.0282.44543.26011.41674.51833-.01317.12888-.07855.24036-.17215.31561z" fill="#bfcad0" stroke-width=".26458"/>
  <path d="m22.888 282.21c.92801-.26199 1.5682.15192 1.7206.69518.1524.54279-.17779 1.23-1.1053 1.491-.36217.1016-.47083.27469-.45624.32972.01599.0555.1999.14675.56113.0447.92754-.26104 1.5677.15287 1.7201.69566.15334.54326-.1778 1.2295-1.1058 1.491-.3617.10159-.47082.27515-.45483.33019.01552.055.19896.14628.56066.0447.24929-.0701.50986.0753.57995.32502.06961.25022-.07573.50986-.32596.58041-.92707.26105-1.5677-.15192-1.721-.69565-.1524-.54279.17826-1.229 1.1067-1.4906.36217-.10206.47083-.27469.45483-.33019-.01505-.055-.19849-.14675-.55972-.0452-.92848.26152-1.5682-.15146-1.721-.69566-.15287-.54279.17779-1.229 1.1058-1.491.36123-.10112.46988-.27515.45483-.32971-.01599-.0555-.19896-.14676-.56066-.0452-.25023.0706-.5094-.0753-.57995-.32501-.07008-.24929.07573-.50893.32596-.57948z" fill="#c4ced3" stroke-width=".26458"/>
  <path d="m19.285 280.95c-.13828 0-.27469-.0607-.36782-.17638-.16227-.2032-.12888-.49905.07337-.66132.10254-.0823 2.5484-2.0032 6.005-1.5089.25728.0367.43602.27468.39933.53197-.03669.25681-.2728.43743-.53244.39886-3.054-.43367-5.2619 1.2954-5.2835 1.3128-.08749.0696-.19096.10301-.29397.10301z" fill="#bfcad0" stroke-width=".26458"/>
  <path d="m11.173 278.99c-.04468 0-.09031-.007-.13546-.0197-.24882-.0748-.38992-.33677-.31514-.58559.53291-1.7746 1.016-4.6067.42238-5.3451-.06632-.0837-.1665-.16603-.39604-.14863-.44119.0339-.39933.9647-.39886.9741.01975.25917-.17497.48494-.43367.50423-.26293.016-.48494-.17498-.50422-.43414-.048447-.64862.15334-1.8979 1.2662-1.9821.4967-.0376.9092.13499 1.2003.49717 1.1152 1.388-.01693 5.4119-.25493 6.2049-.06115.20367-.24835.3349-.4506.3349z" fill="#c4ced3" stroke-width=".26458"/>
  <circle cx="20.461" cy="275.93" r=".70553" fill="#c1ccd2" stroke-width=".26458"/>
  <circle cx="9.4074" cy="279.93" r=".94071" fill="#bfcbd0" stroke-width=".26458"/>
  <circle cx="23.753" cy="280.64" r=".70553" fill="#c1ccd2" stroke-width=".26458"/>
  <circle cx="19.52" cy="286.28" r=".70553" fill="#c1ccd2" stroke-width=".26458"/>
  <circle cx="21.637" cy="273.34" r=".94071" fill="#e2e7ea" stroke-width=".26458"/>
  <circle cx="23.753" cy="275.46" r=".70553" fill="#e2e7ea" stroke-width=".26458"/>
  <circle cx="22.342" cy="277.34" r=".70553" fill="#e2e7ea" stroke-width=".26458"/>
  <circle cx="11.994" cy="282.52" r=".70553" fill="#e2e7ea" stroke-width=".26458"/>
 </g>
</svg>
