<svg width="56" height="56" xml:space="preserve" xmlns="http://www.w3.org/2000/svg"><path style="fill:#000;stroke-width:8.00003;stroke-linecap:square;stroke-linejoin:bevel;stroke-dashoffset:.4;paint-order:markers stroke fill;stop-color:#000" d="M6 41h8v10H6z"/><path d="m34.03 51.001-.048-24.257L29 26.84l1.918-8.448 3.01-.042S32.902 4.293 49.253 5.028l2.178 9.082c-5.02-.244-8.426.15-7.761 4.09l5.22-.07-.128 8.723-5.137.071.065 23.256z" style="clip-rule:evenodd;fill:#000;fill-rule:evenodd;stroke-width:1;stroke-linejoin:round;stroke-miterlimit:1.41421"/><path style="fill:#000;stroke-width:8.00003;stroke-linecap:square;stroke-linejoin:bevel;stroke-dashoffset:.4;paint-order:markers stroke fill;stop-color:#000" d="M17 41h8v10h-8zM6 29h8v10H6zm11 0h8v10h-8zM6 17h8v10H6zm11 0h8v10h-8zM6 5h8v10H6z"/></svg>