<svg width="130" height="130" xml:space="preserve" style="clip-rule:evenodd;fill-rule:evenodd;stroke-linejoin:round;stroke-miterlimit:1.41421" xmlns="http://www.w3.org/2000/svg"><path style="fill:#000;fill-opacity:1;stroke-width:1.01548" d="M67.912 19.057h8.377V30.71h-8.377zM41.312 3.29h8.377v11.653h-8.377zm39 63.767h8.376V78.71h-8.377Zm-13 0h8.377V78.71h-8.377zm-13 0h8.377V78.71h-8.377zm26 48h8.376v11.653h-8.377Zm-13 0h8.377v11.653h-8.377zm-13 0h8.377v11.653h-8.377zm-13 0h8.377v11.653h-8.377zm0-16h8.377v11.653h-8.377zm13 0h8.377v11.653h-8.377zm13 0h8.377v11.653h-8.377zm13 0h8.376v11.653h-8.377Zm0-16h8.376V94.71h-8.377Zm-13 0h8.377V94.71h-8.377zm-13 0h8.377V94.71h-8.377zm-13 0h8.377V94.71h-8.377zm0-16h8.377V78.71h-8.377zm26-16h8.377V62.71h-8.377zm-13 0h8.377V62.71h-8.377zm-13 0h8.377V62.71h-8.377zm26-16h8.377V46.71h-8.377zm-13 0h8.377V46.71h-8.377zm-13 0h8.377V46.71h-8.377zm0-16h8.377V30.71h-8.377z"/></svg>