<svg width="480" height="480" version="1.0" xmlns="http://www.w3.org/2000/svg"><path d="M196.7 468.766c-9.626-.397-21.326-1.24-26-1.874-34.429-4.67-70.05-20.013-97.08-41.815-4.169-3.363-12.734-11.46-19.033-17.994C26.4 377.847 8.347 339.794 3.685 299.795c-1.557-13.353-.789-45.808 1.404-59.33 7.018-43.295 25.4-85.002 52.28-118.614C105.38 61.813 185.157 20.074 267.555 11.88c73.043-7.264 140.07 21.115 175.421 74.268 9.466 14.233 20.388 38.032 19.189 41.81-1.22 3.841-4.212 2.174-6.03-3.358-6.175-18.795-19.14-39.442-34.06-54.244-18.866-18.716-48.665-33.795-78.038-39.489-36.427-7.06-73.477-4.303-116.338 8.66-48.706 14.733-88.618 37.93-121 70.328-34.501 34.518-55.576 74.93-64.665 123.995-2.551 13.776-2.569 51.095-.029 62.874 6.339 29.4 19.21 52.79 40.112 72.891 22.04 21.198 50.584 35.714 83.204 42.314 13.418 2.715 46.866 3.791 62.111 1.998 42.607-5.01 77.495-21.255 102.072-47.528 13.27-14.185 19.731-25.456 32.992-57.55 4.431-10.724 12.417-29.4 17.745-41.5 21.588-49.022 21.425-48.533 17.45-52.508-1.912-1.912-2.953-2.156-7.097-1.665-8.173.968-15.094 7.167-20.85 18.674-1.513 3.025-12.119 26.537-23.569 52.25l-20.817 46.75h-37.33c-34.883 0-37.329-.115-37.334-1.75-.003-.963 10.348-24.963 23-53.334 19.408-43.516 23.005-52.317 23.005-56.274 0-4.195-.291-4.804-2.75-5.752-7.019-2.706-15.952 1.739-22.328 11.11-2.058 3.025-13.668 27.738-25.8 54.918-12.132 27.18-22.41 49.75-22.84 50.153-.43.405-17.157.892-37.172 1.082-31.527.3-36.513.146-37.303-1.153-.836-1.374 14.06-35.678 57.218-131.763l7.304-16.262 36.072.262c35.181.256 36.081.312 36.433 2.263.622 3.45 1.66 3.614 7.24 1.148 11.328-5.005 22.301-7.092 37.426-7.117 11.685-.02 15.16.341 21.014 2.18 8.078 2.537 15.145 6.92 17.9 11.102l1.913 2.904 8.086-3.785c27.277-12.769 58.286-16.255 78.226-8.795 7.187 2.69 15.68 10.527 18.043 16.65 2.649 6.865 2.269 17.736-.952 27.213-6.163 18.138-46.33 105.439-58.553 127.261-29.407 52.503-62.259 83.535-107.116 101.18-18.838 7.411-46.214 13.016-68.806 14.087-22.235 1.055-26.184 1.09-43.255.387z"/></svg>
