<svg width="150" height="150" viewBox="-72 -23.757 150 150" overflow="visible" xml:space="preserve" style="overflow:visible" xmlns="http://www.w3.org/2000/svg"><path d="M65.822 17.686C58.41 11.516 47 7.386 31.62 5.278L20.318 41.213c-.244 1.318-.664 2.815-1.315 4.54-1.153 2.883-2.542 5.258-4.174 7.127-1.634 1.874-3.463 3.335-5.489 4.4-2.028 1.06-4.232 1.79-6.614 2.193-2.382.4-4.847.526-7.393.378-2.549-.148-4.717-.495-6.5-1.042-1.787-.546-3.429-1.452-4.926-2.72-1.107-1.245-1.75-2.878-1.927-4.902-.177-2.024.313-4.527 1.471-7.509 1.035-2.592 2.345-4.852 3.933-6.77 1.587-1.922 3.443-3.412 5.565-4.468a20.816 20.816 0 0 1 6.54-2.125c2.326-.354 4.914-.448 7.755-.283 2.352.14 4.542.485 6.574 1.048.964.265 1.808.613 2.542 1.033l8.677-27.59a180.575 180.575 0 0 0-6.609-.51c-21.9-1.28-40.308 1.25-55.229 7.575-14.918 6.33-24.865 15.715-29.833 28.154-1.49 3.814-2.292 7.408-2.41 10.785l-.01-.005c-1.426 24.463 14.295 38.245 24.007 44.373 3.897 2.61 7.362 3.901 7.362 3.901l4.451-14.225 1.316-3.496c5.86 1.108 12.375 1.88 19.573 2.298 22.053 1.286 40.54-1.232 55.458-7.564 14.916-6.325 24.78-15.638 29.591-27.942 4.806-12.295 2.514-22.357-6.882-30.18z" style="fill:#000;fill-opacity:1;stroke:none"/></svg>