<?xml version="1.0" encoding="UTF-8"?>
<svg width="321.76" height="87.33" version="1.1" viewBox="0 0 85.132 23.106" xmlns="http://www.w3.org/2000/svg">
 <g transform="translate(10.53 -271.18)">
  <g fill="#fff" stroke-width=".26458px" aria-label="Partyflow!">
   <path d="m-9.6253 289.97c-2.0727-1.8666.24669-5.3163.78581-7.5248.85441-2.6325 1.7556-5.2611 2.7384-7.8581-.74555-3.0868 4.6135-2.4746 6.096-1.2383 3.122 1.3523 2.4065 5.0925.52239 7.1542-1.4597 3.0574-5.3016 2.8595-7.7138 4.0377-.93351 1.5927-.70146 4.6244-2.4289 5.4294zm3.3814-7.9534c3.0866.0631 6.0677-2.5734 6.1198-5.715-1.9273-4.2923-5.2831.21668-5.3995 3.0539-.13352.89877-.90911 1.7327-.72033 2.6611z"/>
   <path d="m.8209 288.12c-2.4856-1.7449.4856-4.6874 1.4913-6.4592 1.2271-2.2871 4.0632-3.2908 5.6763-.92265 1.8435.84737-.43563 2.6388.38695 4.066.44985 1.1142 3.1655 2.5988.58936 3.1016-2.4807.20838-2.2731-4.2925-4.1256-1.1586-1.052.86684-2.5786 2.1906-4.0183 1.3729zm1.3097-1.9764c1.4055-.8559 5.6173-3.2159 3.5481-4.9054-1.7727.84807-2.8068 3.1711-3.5481 4.9054z"/>
   <path d="m11.306 287.97c-1.5339-1.9046.45944-4.7953.9019-6.9235.76502-3.5391 3.8975-1.1759 1.5614 1.1386-.80527 1.9213 2.6163-2.5824 4.1566-1.9304 3.1071.84374-.32826 2.0771-1.7234 2.6788-2.7802.68528-2.7086 4.3269-4.6047 5.2685l-.2917-.23217z"/>
   <path d="m22.507 288.76c-4.1925-.8611.20452-6.5394-2.0955-7.3818-2.6383-1.7001 3.1213-1.2748 2.6194-3.8576 1.2773-2.93 3.3585.29042 1.2859 1.8574 1.423-.93827 4.5542 1.2003 1.905 1.6669-3.4076-1.4216-4.8645 5.3856-2.4825 5.84 3.132-2.4188 1.9109 2.4762-1.2323 1.8751z"/>
   <path d="m28.605 294.28c-1.9433-1.7994 1.0735-4.879 1.8172-6.8907.7383-1.3273 1.0925-2.4419-.15032-.72926-2.3413 3.3555-3.79-1.617-2.6432-3.6671.66904-1.3889-1.6073-3.825 1.268-3.3874 2.2082 1.1697.01597 5.1635.70693 5.6272 2.4711-1.153 2.387-6.3584 5.5736-4.7402-1.2201 3.1973-2.4211 6.3957-3.9499 9.4733-1.0012 1.153-.84348 4.3085-2.6223 4.3142z"/>
   <path d="m36.172 291.5c-2.9056-.61978-1.2476-3.8778-1.1002-5.8147.35961-2.724 1.4576-5.0682 2.4352-7.6036.91842-2.4822 3.3837-6.6466 6.5127-4.9828 2.7671 1.5573-2.6002 6.2977-1.5612 2.0657-1.7607-.50756-2.8167 3.3626-3.6671 4.8102-.48606 1.6614 3.7661-1.0821 3.0004 1.8098-2.2401.77123-5.1308.77224-4.7104 4.0705-.55609 1.8433-.39684 3.8154-.90935 5.6449zm6.2389-2.1669c-1.6848-1.4708-.13562-4.2263.13097-6.1377.74713-2.5934 1.9007-4.9811 3.0028-7.4092.33504-2.215 3.7169-2.141 2.3193.1643-1.627 2.7578-2.9158 5.6931-3.6964 8.7884-.73528 1.334-.34525 4.0777-1.7566 4.5943z"/>
   <path d="m48.648 288.42c-4.5808-.7563-1.7665-6.8016.76795-8.4832 1.4387-1.3532 2.8207.65476 2.0181 1.1727 1.6936-1.2269 4.579.4153 1.8812 1.8098.51761 2.5529-2.4693 4.9288-4.6673 5.5007zm.07144-2.0002c1.7752-.65876 3.949-3.671 1.3124-4.1281-.93442.52584-2.636 3.3825-1.3124 4.1281z"/>
   <path d="m56.657 287.9c-2.3972-1.7704-1.3161-5.4297-.50006-7.8343 3.1623-1.5004.9342 3.5996 1.1847 5.1852 2.4679-.27557 2.2366-6.8222 4.9173-4.5839-.50653 1.869-1.6955 7.1987 1.3335 3.4111.67277-1.107 2.6387-5.21 3.1849-1.8692-.62846 2.5788-2.9045 5.536-5.7864 5.4709-1.3697-.36164-.91315-3.1874-2.2384-.98226-.60342.5229-1.2802 1.0773-2.0955 1.2025z"/>
   <path d="m69.673 284.78c-2.8563-1.2793.17802-5.3069.80963-7.4533 1.4369-1.7294 1.236-5.8444 3.5481-6.0245 1.6051 2.1018-1.4914 4.3597-1.8574 6.5484-1.0498 2.201-1.3024 4.9396-2.5003 6.9294zm-1.2621 3.6909c-3.397 1.1536-1.1246-4.2232.86916-1.7204.55022.72905-.2633 1.4419-.86916 1.7204z"/>
  </g>
 </g>
</svg>
