<svg width="24" height="24" xmlns="http://www.w3.org/2000/svg"><path d="M17.35 8.25q2.14 0 3.731 1.59l-1.42 1.497q-.587-.492-1.08-.7-.473-.228-1.098-.228-1.212 0-1.818 1.042-.606 1.041-.606 3.674 0 1.856.208 2.879t.625 1.42q.417.398 1.099.398.7 0 1.306-.398V16.28h-1.25l-.284-2.102H21.1v6.477q-.852.625-1.931.985-1.08.36-2.122.36-2.594 0-3.825-1.667-1.231-1.666-1.231-5.208 0-2.292.681-3.826.701-1.553 1.913-2.291 1.212-.758 2.765-.758zm-8.522 6.875-2.14-5.057h-.815v5.057H2.9V2h3.503q4.887 0 4.887 3.977 0 1.156-.493 2.084-.473.928-1.496 1.439l2.69 5.625ZM6.479 8.004q.947 0 1.364-.474.416-.492.416-1.553 0-.966-.454-1.42-.436-.455-1.42-.455h-.512v3.902z" fill="#FFF"/></svg>
