<svg width="24" height="24" xmlns="http://www.w3.org/2000/svg"><path d="M2.798 1.622 1.32 3.088l1.58 1.59v10.447h2.973v-5.057h.815l2.14 5.057h3.162l-1.195-2.5 1.252 1.26a13.21 13.21 0 0 0-.057 1.24c0 2.361.41 4.098 1.23 5.209.821 1.111 2.097 1.666 3.827 1.666a6.681 6.681 0 0 0 2.545-.52l1.27 1.278 1.475-1.464zM6.35 2l4.857 4.879c.054-.288.082-.59.082-.902C11.29 3.325 9.662 2 6.404 2Zm-.477 5.67.332.334h-.332Zm11.477.58c-1.036 0-1.956.253-2.764.758-.255.155-.49.34-.711.549l1.828 1.836c.404-.654.996-.985 1.78-.985.416 0 .783.077 1.099.229.328.139.687.373 1.078.7l1.422-1.495c-1.06-1.06-2.306-1.592-3.732-1.592Zm1.127 5.928 2.623 2.635v-2.635zm-3.338 2.818 2.656 2.674a2.25 2.25 0 0 1-.805.152c-.454 0-.82-.133-1.097-.398-.278-.265-.487-.738-.625-1.42a9.431 9.431 0 0 1-.13-1.008z" fill="#FFF"/></svg>
