<svg viewBox="0 0 80 80" xml:space="preserve" style="fill-rule:evenodd;clip-rule:evenodd;stroke-miterlimit:1.41421" xmlns="http://www.w3.org/2000/svg"><path style="fill:#000;stroke-width:1" d="M61.24 58.3c-2.351-.772-4.911-1.634-5.688-1.915l-1.412-.512.945-.136c1.351-.195 2.877-1.078 4.502-2.608 1.733-1.63 2.754-3.036 3.787-5.218.828-1.748 1.951-5.345 2.16-6.92l.122-.919-1.394-1.401-1.393-1.402-1.438.086-1.438.086 1.604-.603a70.893 70.893 0 0 0 3.207-1.318c3.603-1.605 8.141-2.866 10.869-3.02 3.252-.183 3.929.275 3.425 2.317-.55 2.23-3.37 7.505-5.585 10.45-1.311 1.743-1.47 2.092-1.705 3.758-.157 1.112-.15 2.19.03 4.733.23 3.204.226 3.306-.12 3.773-.717.967-2.905 1.863-5.046 2.065-1.098.104-1.366.04-5.431-1.295zm-24.498-.072-.98-.184 2.08-.683c1.922-.63 3.809-1.03 6.16-1.304 1.145-.133 1.228.124.353 1.08-.538.586-.728.662-2.45.974-2.033.368-3.638.405-5.163.117zm-4.452-2.747c.537-.362 1.556-1.244 2.263-1.96l1.286-1.302h1.57c1.923 0 3.094-.288 4.413-1.084 2.02-1.22 5.895-4.578 7.233-6.268 1.258-1.59 1.079-3.368-.478-4.738-.978-.861-2.43-1.195-3.262-.75-.272.146-1.294.273-5.036.625l-.827.078-.124-.827c-.376-2.505-2.295-5.975-4.476-8.097-1.494-1.453-1.86-1.738-3.404-2.661l-1.21-.723 1.12.105c4.01.375 11.264 3.592 14.146 6.273 2.267 2.108 6.177 3.964 10.926 5.187 1.46.376 2.224.462 4.23.478 2.05.016 2.45.063 2.45.286 0 .147-.202 1.107-.451 2.133-.524 2.164-1.447 4.564-2.355 6.126-.827 1.423-3.252 3.853-4.447 4.457-.893.45-1.049.47-3.92.474-7.332.013-11.183.44-14.966 1.663-1.672.54-4.593 1.18-5.394 1.182-.146 0 .175-.295.713-.657zm-13.544.12c-2.258-.316-2.795-.512-3.317-1.215-.267-.359-.51-.684-.54-.722-.03-.039-.173.029-.32.15-.283.235-3.402.706-4.739.716-1.869.013-3.96-.905-4.654-2.044-.429-.702-.412-.916.095-1.248.334-.219 2.552-.54 4.255-.616.29-.013.098-.456-.666-1.527-1.378-1.93-2.867-2.957-4.643-3.2-1.279-.174-2.666-.886-3.1-1.59-.397-.64-.488-1.86-.183-2.43.33-.617 1.24-.93 2.934-1.01.882-.042 2.044-.009 2.582.073l.977.15 3.684 4.273c2.027 2.35 3.805 4.349 3.952 4.442.2.125.465-.01 1.04-.53.425-.383.772-.79.772-.903 0-.28-7.657-9.175-8.202-9.528l-.435-.281 1.08-1.59c1.54-2.266 1.488-2.236 1.754-1.018.386 1.76 1.2 3.231 2.523 4.557 5.04 5.05 13.4 2.71 15.216-4.26.475-1.821.26-4.308-.532-6.181-.13-.31-.105-.31.555-.037 1.482.615 2.716 1.494 4.256 3.033 1.814 1.813 2.74 3.262 3.389 5.31.553 1.745.553 1.907-.005 1.907-.433 0-.446.034-.446 1.266v1.267l2.005-.123c3.642-.224 7.274-.61 7.913-.842.598-.216.651-.202 1.058.27.235.274.428.587.428.696 0 .292-3.07 3.26-4.774 4.616-2.69 2.14-2.607 2.114-7.015 2.156-3.332.032-3.882-.002-4.45-.28-.804-.394-2.479-.846-2.678-.723-.254.157-.162.948.19 1.637.533 1.039 1.85 1.819 3.074 1.819.28 0 .505.06.502.134-.01.265-2.068 1.689-3.291 2.278-.689.33-1.772.727-2.407.88-1.39.335-6.186.5-7.837.268zm-.74-15.201c-1.854-.691-3.248-1.954-4.043-3.66-.4-.857-.467-1.247-.47-2.695-.003-1.485.059-1.826.5-2.78.636-1.378 2.016-2.75 3.417-3.4.912-.422 1.294-.494 2.603-.49 1.36.004 1.666.07 2.692.574 1.398.689 2.654 1.973 3.31 3.385.638 1.372.673 3.715.078 5.206-.539 1.349-1.738 2.66-3.1 3.389-1.003.537-1.307.61-2.732.659-1.044.035-1.831-.03-2.255-.188zm3.907-2.993c2.787-1.35 2.785-5.435-.004-6.825-2.616-1.303-5.463.478-5.475 3.426-.012 2.783 2.953 4.622 5.479 3.4zm-2.601-2.527c-.784-.833-.192-2.271.928-2.254.893.013 1.464 1.003 1.091 1.89-.37.88-1.367 1.06-2.02.364zm32.979.43c-2.11-.879-3.866-1.926-5.065-3.02-1.341-1.223-3.449-2.563-5.94-3.776-5.013-2.439-7.738-3.16-13.177-3.485-2.468-.147-2.51-.052.754-1.723 2.73-1.398 5.131-2.312 7.148-2.72 1.287-.26 1.75-.274 3.315-.098 3.037.342 7.194 1.511 10.175 2.863l1.096.497.807 1.703.806 1.703 1.308.657c2.17 1.088 3.676 2.15 4.295 3.027.679.962 1.803 3.648 1.605 3.837-.126.12-4.997 1.238-5.336 1.225-.08-.003-.887-.314-1.791-.69z"/></svg>