<svg viewBox="0 0 80 80" xml:space="preserve" style="fill-rule:evenodd;clip-rule:evenodd;stroke-miterlimit:1.41421" xmlns="http://www.w3.org/2000/svg"><path style="fill:#000;stroke-width:1.62564" d="M19.404 8.094c-.767-.023-1.59.042-2.863.185C11.604 8.835 4.846 10.736 0 12.934v17.193c1.44-.85 2.695-1.744 3.7-2.66 2.18-1.988 5.606-4.167 9.655-6.139 8.15-3.965 12.579-5.138 21.42-5.666 4.012-.239 4.082-.084-1.224-2.8-4.438-2.273-8.342-3.76-11.621-4.423-1.046-.21-1.758-.322-2.526-.345zm28.534 11.383c-2.211.006-2.71.112-4.377.931-2.273 1.12-4.315 3.209-5.381 5.504-1.037 2.23-1.095 6.04-.127 8.463.876 2.193 2.825 4.325 5.039 5.51 1.63.873 2.125.99 4.441 1.07 1.697.057 2.977-.048 3.666-.305 3.014-1.123 5.28-3.177 6.572-5.95.65-1.394.76-2.028.764-4.382.005-2.414-.095-2.968-.812-4.52-1.034-2.24-3.278-4.468-5.555-5.525-1.483-.686-2.103-.803-4.23-.796zm-16.624.648-1.82.17c-6.519.61-18.31 5.839-22.996 10.197-1.657 1.541-3.88 2.992-6.498 4.31v7.245a6.824 6.824 0 0 1 1.502-1.838c1.59-1.4 3.95-1.942 5.303-1.219.442.238 2.104.444 8.187 1.016l1.344.127.201-1.344c.611-4.072 3.732-9.714 7.277-13.164 2.43-2.362 3.024-2.824 5.534-4.324l1.966-1.176zm3.215 3.346c-.118-.008-.395.102-.931.324-2.41 1-4.417 2.43-6.92 4.932-2.95 2.947-4.453 5.301-5.508 8.63-.9 2.837-.9 3.102.008 3.102.704 0 .724.054.724 2.057v2.06l-3.26-.201c-5.92-.364-11.824-.99-12.863-1.367-.972-.351-1.059-.33-1.72.437-.382.446-.696.956-.696 1.133 0 .475 4.992 5.3 7.762 7.504 4.373 3.479 4.237 3.436 11.402 3.504 5.417.052 6.311-.003 7.235-.455 1.307-.64 4.03-1.376 4.353-1.176.413.255.264 1.542-.308 2.662-.867 1.69-3.007 2.957-4.996 2.957-.456 0-.822.097-.817.217.016.43 3.362 2.748 5.35 3.705 1.12.537 2.88 1.181 3.912 1.43 2.26.544 10.056.812 12.74.435 3.67-.513 4.544-.831 5.393-1.974.434-.584.83-1.112.879-1.174.048-.064.28.047.52.244.46.382 5.529 1.148 7.702 1.164 3.039.021 6.438-1.473 7.567-3.324.697-1.141.67-1.488-.155-2.027-.543-.356-4.15-.879-6.918-1.002-.471-.022-.158-.742 1.084-2.483 2.24-3.137 4.66-4.808 7.547-5.203 2.08-.283 4.334-1.44 5.04-2.584.645-1.04.794-3.025.298-3.951-.536-1.003-2.016-1.51-4.77-1.64-1.433-.069-3.322-.015-4.197.118l-1.59.243-5.988 6.947c-3.295 3.82-6.185 7.07-6.424 7.22-.325.204-.756-.015-1.691-.86-.69-.623-1.254-1.286-1.254-1.47 0-.455 12.446-14.914 13.332-15.488l.707-.457-1.756-2.584c-2.503-3.684-2.417-3.636-2.85-1.656-.627 2.861-1.95 5.253-4.1 7.408-8.194 8.21-21.785 4.407-24.737-6.924-.772-2.96-.423-7.004.865-10.049.106-.252.147-.377.03-.384zm13.508.521c3.097.146 5.704 2.673 5.719 6.268.02 4.524-4.802 7.512-8.908 5.525-4.531-2.194-4.526-8.836.007-11.096 1.064-.53 2.15-.745 3.182-.697zm-.469 4.02c-1.451.02-2.38 1.63-1.773 3.072.601 1.43 2.22 1.722 3.281.592 1.275-1.354.313-3.692-1.508-3.664zM0 46.775v14.873c9.414.166 14.941.91 20.37 2.664 2.717.878 7.467 1.92 8.769 1.922.237 0-.286-.48-1.16-1.068-.873-.588-2.529-2.022-3.678-3.186l-2.092-2.117h-2.55c-3.127 0-5.032-.467-7.177-1.761C9.2 56.118 2.9 50.659.725 47.912A6.966 6.966 0 0 1 0 46.775zm7.865 19.291c-.756.1-.567.626.5 1.791.875.953 1.183 1.077 3.983 1.584 3.305.599 5.915.66 8.394.192l1.592-.301-3.38-1.11C15.828 67.2 12.76 66.55 8.938 66.105c-.465-.055-.822-.07-1.074-.038z"/></svg>